<?xml version="1.0" encoding="utf-8" standalone="no"?>
<!DOCTYPE svg PUBLIC "-//W3C//DTD SVG 1.1//EN"
  "http://www.w3.org/Graphics/SVG/1.1/DTD/svg11.dtd">
<svg xmlns:xlink="http://www.w3.org/1999/xlink" width="1440pt" height="720pt" viewBox="0 0 1440 720" xmlns="http://www.w3.org/2000/svg" version="1.1">
 <metadata>
  <rdf:RDF xmlns:dc="http://purl.org/dc/elements/1.1/" xmlns:cc="http://creativecommons.org/ns#" xmlns:rdf="http://www.w3.org/1999/02/22-rdf-syntax-ns#">
   <cc:Work>
    <dc:type rdf:resource="http://purl.org/dc/dcmitype/StillImage"/>
    <dc:date>2024-02-29T14:37:20.387666</dc:date>
    <dc:format>image/svg+xml</dc:format>
    <dc:creator>
     <cc:Agent>
      <dc:title>Matplotlib v3.5.3, https://matplotlib.org/</dc:title>
     </cc:Agent>
    </dc:creator>
   </cc:Work>
  </rdf:RDF>
 </metadata>
 <defs>
  <style type="text/css">*{stroke-linejoin: round; stroke-linecap: butt}</style>
 </defs>
 <g id="figure_1">
  <g id="patch_1">
   <path d="M 0 720 
L 1440 720 
L 1440 0 
L 0 0 
z
" style="fill: #ffffff"/>
  </g>
  <g id="axes_1">
   <g id="patch_2">
    <path d="M 180 640.8 
L 1296 640.8 
L 1296 86.4 
L 180 86.4 
z
" style="fill: #ffffff"/>
   </g>
   <g id="matplotlib.axis_1">
    <g id="xtick_1">
     <g id="line2d_1">
      <defs>
       <path id="mad3b1613c9" d="M 0 0 
L 0 3.5 
" style="stroke: #000000; stroke-width: 0.8"/>
      </defs>
      <g>
       <use xlink:href="#mad3b1613c9" x="231.17216" y="640.8" style="stroke: #000000; stroke-width: 0.8"/>
      </g>
     </g>
     <g id="text_1">
      <!-- −10 -->
      <g transform="translate(220.619816 655.398438)scale(0.1 -0.1)">
       <defs>
        <path id="DejaVuSans-2212" d="M 678 2272 
L 4684 2272 
L 4684 1741 
L 678 1741 
L 678 2272 
z
" transform="scale(0.015625)"/>
        <path id="DejaVuSans-31" d="M 794 531 
L 1825 531 
L 1825 4091 
L 703 3866 
L 703 4441 
L 1819 4666 
L 2450 4666 
L 2450 531 
L 3481 531 
L 3481 0 
L 794 0 
L 794 531 
z
" transform="scale(0.015625)"/>
        <path id="DejaVuSans-30" d="M 2034 4250 
Q 1547 4250 1301 3770 
Q 1056 3291 1056 2328 
Q 1056 1369 1301 889 
Q 1547 409 2034 409 
Q 2525 409 2770 889 
Q 3016 1369 3016 2328 
Q 3016 3291 2770 3770 
Q 2525 4250 2034 4250 
z
M 2034 4750 
Q 2819 4750 3233 4129 
Q 3647 3509 3647 2328 
Q 3647 1150 3233 529 
Q 2819 -91 2034 -91 
Q 1250 -91 836 529 
Q 422 1150 422 2328 
Q 422 3509 836 4129 
Q 1250 4750 2034 4750 
z
" transform="scale(0.015625)"/>
       </defs>
       <use xlink:href="#DejaVuSans-2212"/>
       <use xlink:href="#DejaVuSans-31" x="83.789062"/>
       <use xlink:href="#DejaVuSans-30" x="147.412109"/>
      </g>
     </g>
    </g>
    <g id="xtick_2">
     <g id="line2d_2">
      <g>
       <use xlink:href="#mad3b1613c9" x="389.489243" y="640.8" style="stroke: #000000; stroke-width: 0.8"/>
      </g>
     </g>
     <g id="text_2">
      <!-- 0 -->
      <g transform="translate(386.307993 655.398438)scale(0.1 -0.1)">
       <use xlink:href="#DejaVuSans-30"/>
      </g>
     </g>
    </g>
    <g id="xtick_3">
     <g id="line2d_3">
      <g>
       <use xlink:href="#mad3b1613c9" x="547.806326" y="640.8" style="stroke: #000000; stroke-width: 0.8"/>
      </g>
     </g>
     <g id="text_3">
      <!-- 10 -->
      <g transform="translate(541.443826 655.398438)scale(0.1 -0.1)">
       <use xlink:href="#DejaVuSans-31"/>
       <use xlink:href="#DejaVuSans-30" x="63.623047"/>
      </g>
     </g>
    </g>
    <g id="xtick_4">
     <g id="line2d_4">
      <g>
       <use xlink:href="#mad3b1613c9" x="706.123409" y="640.8" style="stroke: #000000; stroke-width: 0.8"/>
      </g>
     </g>
     <g id="text_4">
      <!-- 20 -->
      <g transform="translate(699.760909 655.398438)scale(0.1 -0.1)">
       <defs>
        <path id="DejaVuSans-32" d="M 1228 531 
L 3431 531 
L 3431 0 
L 469 0 
L 469 531 
Q 828 903 1448 1529 
Q 2069 2156 2228 2338 
Q 2531 2678 2651 2914 
Q 2772 3150 2772 3378 
Q 2772 3750 2511 3984 
Q 2250 4219 1831 4219 
Q 1534 4219 1204 4116 
Q 875 4013 500 3803 
L 500 4441 
Q 881 4594 1212 4672 
Q 1544 4750 1819 4750 
Q 2544 4750 2975 4387 
Q 3406 4025 3406 3419 
Q 3406 3131 3298 2873 
Q 3191 2616 2906 2266 
Q 2828 2175 2409 1742 
Q 1991 1309 1228 531 
z
" transform="scale(0.015625)"/>
       </defs>
       <use xlink:href="#DejaVuSans-32"/>
       <use xlink:href="#DejaVuSans-30" x="63.623047"/>
      </g>
     </g>
    </g>
    <g id="xtick_5">
     <g id="line2d_5">
      <g>
       <use xlink:href="#mad3b1613c9" x="864.440493" y="640.8" style="stroke: #000000; stroke-width: 0.8"/>
      </g>
     </g>
     <g id="text_5">
      <!-- 30 -->
      <g transform="translate(858.077993 655.398438)scale(0.1 -0.1)">
       <defs>
        <path id="DejaVuSans-33" d="M 2597 2516 
Q 3050 2419 3304 2112 
Q 3559 1806 3559 1356 
Q 3559 666 3084 287 
Q 2609 -91 1734 -91 
Q 1441 -91 1130 -33 
Q 819 25 488 141 
L 488 750 
Q 750 597 1062 519 
Q 1375 441 1716 441 
Q 2309 441 2620 675 
Q 2931 909 2931 1356 
Q 2931 1769 2642 2001 
Q 2353 2234 1838 2234 
L 1294 2234 
L 1294 2753 
L 1863 2753 
Q 2328 2753 2575 2939 
Q 2822 3125 2822 3475 
Q 2822 3834 2567 4026 
Q 2313 4219 1838 4219 
Q 1578 4219 1281 4162 
Q 984 4106 628 3988 
L 628 4550 
Q 988 4650 1302 4700 
Q 1616 4750 1894 4750 
Q 2613 4750 3031 4423 
Q 3450 4097 3450 3541 
Q 3450 3153 3228 2886 
Q 3006 2619 2597 2516 
z
" transform="scale(0.015625)"/>
       </defs>
       <use xlink:href="#DejaVuSans-33"/>
       <use xlink:href="#DejaVuSans-30" x="63.623047"/>
      </g>
     </g>
    </g>
    <g id="xtick_6">
     <g id="line2d_6">
      <g>
       <use xlink:href="#mad3b1613c9" x="1022.757576" y="640.8" style="stroke: #000000; stroke-width: 0.8"/>
      </g>
     </g>
     <g id="text_6">
      <!-- 40 -->
      <g transform="translate(1016.395076 655.398438)scale(0.1 -0.1)">
       <defs>
        <path id="DejaVuSans-34" d="M 2419 4116 
L 825 1625 
L 2419 1625 
L 2419 4116 
z
M 2253 4666 
L 3047 4666 
L 3047 1625 
L 3713 1625 
L 3713 1100 
L 3047 1100 
L 3047 0 
L 2419 0 
L 2419 1100 
L 313 1100 
L 313 1709 
L 2253 4666 
z
" transform="scale(0.015625)"/>
       </defs>
       <use xlink:href="#DejaVuSans-34"/>
       <use xlink:href="#DejaVuSans-30" x="63.623047"/>
      </g>
     </g>
    </g>
    <g id="xtick_7">
     <g id="line2d_7">
      <g>
       <use xlink:href="#mad3b1613c9" x="1181.074659" y="640.8" style="stroke: #000000; stroke-width: 0.8"/>
      </g>
     </g>
     <g id="text_7">
      <!-- 50 -->
      <g transform="translate(1174.712159 655.398438)scale(0.1 -0.1)">
       <defs>
        <path id="DejaVuSans-35" d="M 691 4666 
L 3169 4666 
L 3169 4134 
L 1269 4134 
L 1269 2991 
Q 1406 3038 1543 3061 
Q 1681 3084 1819 3084 
Q 2600 3084 3056 2656 
Q 3513 2228 3513 1497 
Q 3513 744 3044 326 
Q 2575 -91 1722 -91 
Q 1428 -91 1123 -41 
Q 819 9 494 109 
L 494 744 
Q 775 591 1075 516 
Q 1375 441 1709 441 
Q 2250 441 2565 725 
Q 2881 1009 2881 1497 
Q 2881 1984 2565 2268 
Q 2250 2553 1709 2553 
Q 1456 2553 1204 2497 
Q 953 2441 691 2322 
L 691 4666 
z
" transform="scale(0.015625)"/>
       </defs>
       <use xlink:href="#DejaVuSans-35"/>
       <use xlink:href="#DejaVuSans-30" x="63.623047"/>
      </g>
     </g>
    </g>
   </g>
   <g id="matplotlib.axis_2">
    <g id="ytick_1">
     <g id="line2d_8">
      <defs>
       <path id="mac1c720279" d="M 0 0 
L -3.5 0 
" style="stroke: #000000; stroke-width: 0.8"/>
      </defs>
      <g>
       <use xlink:href="#mac1c720279" x="180" y="615.6" style="stroke: #000000; stroke-width: 0.8"/>
      </g>
     </g>
     <g id="text_8">
      <!-- 0 -->
      <g transform="translate(166.6375 619.399219)scale(0.1 -0.1)">
       <use xlink:href="#DejaVuSans-30"/>
      </g>
     </g>
    </g>
    <g id="ytick_2">
     <g id="line2d_9">
      <g>
       <use xlink:href="#mac1c720279" x="180" y="536.10726" style="stroke: #000000; stroke-width: 0.8"/>
      </g>
     </g>
     <g id="text_9">
      <!-- 10 -->
      <g transform="translate(160.275 539.906478)scale(0.1 -0.1)">
       <use xlink:href="#DejaVuSans-31"/>
       <use xlink:href="#DejaVuSans-30" x="63.623047"/>
      </g>
     </g>
    </g>
    <g id="ytick_3">
     <g id="line2d_10">
      <g>
       <use xlink:href="#mac1c720279" x="180" y="456.614519" style="stroke: #000000; stroke-width: 0.8"/>
      </g>
     </g>
     <g id="text_10">
      <!-- 20 -->
      <g transform="translate(160.275 460.413738)scale(0.1 -0.1)">
       <use xlink:href="#DejaVuSans-32"/>
       <use xlink:href="#DejaVuSans-30" x="63.623047"/>
      </g>
     </g>
    </g>
    <g id="ytick_4">
     <g id="line2d_11">
      <g>
       <use xlink:href="#mac1c720279" x="180" y="377.121779" style="stroke: #000000; stroke-width: 0.8"/>
      </g>
     </g>
     <g id="text_11">
      <!-- 30 -->
      <g transform="translate(160.275 380.920997)scale(0.1 -0.1)">
       <use xlink:href="#DejaVuSans-33"/>
       <use xlink:href="#DejaVuSans-30" x="63.623047"/>
      </g>
     </g>
    </g>
    <g id="ytick_5">
     <g id="line2d_12">
      <g>
       <use xlink:href="#mac1c720279" x="180" y="297.629038" style="stroke: #000000; stroke-width: 0.8"/>
      </g>
     </g>
     <g id="text_12">
      <!-- 40 -->
      <g transform="translate(160.275 301.428257)scale(0.1 -0.1)">
       <use xlink:href="#DejaVuSans-34"/>
       <use xlink:href="#DejaVuSans-30" x="63.623047"/>
      </g>
     </g>
    </g>
    <g id="ytick_6">
     <g id="line2d_13">
      <g>
       <use xlink:href="#mac1c720279" x="180" y="218.136298" style="stroke: #000000; stroke-width: 0.8"/>
      </g>
     </g>
     <g id="text_13">
      <!-- 50 -->
      <g transform="translate(160.275 221.935517)scale(0.1 -0.1)">
       <use xlink:href="#DejaVuSans-35"/>
       <use xlink:href="#DejaVuSans-30" x="63.623047"/>
      </g>
     </g>
    </g>
    <g id="ytick_7">
     <g id="line2d_14">
      <g>
       <use xlink:href="#mac1c720279" x="180" y="138.643557" style="stroke: #000000; stroke-width: 0.8"/>
      </g>
     </g>
     <g id="text_14">
      <!-- 60 -->
      <g transform="translate(160.275 142.442776)scale(0.1 -0.1)">
       <defs>
        <path id="DejaVuSans-36" d="M 2113 2584 
Q 1688 2584 1439 2293 
Q 1191 2003 1191 1497 
Q 1191 994 1439 701 
Q 1688 409 2113 409 
Q 2538 409 2786 701 
Q 3034 994 3034 1497 
Q 3034 2003 2786 2293 
Q 2538 2584 2113 2584 
z
M 3366 4563 
L 3366 3988 
Q 3128 4100 2886 4159 
Q 2644 4219 2406 4219 
Q 1781 4219 1451 3797 
Q 1122 3375 1075 2522 
Q 1259 2794 1537 2939 
Q 1816 3084 2150 3084 
Q 2853 3084 3261 2657 
Q 3669 2231 3669 1497 
Q 3669 778 3244 343 
Q 2819 -91 2113 -91 
Q 1303 -91 875 529 
Q 447 1150 447 2328 
Q 447 3434 972 4092 
Q 1497 4750 2381 4750 
Q 2619 4750 2861 4703 
Q 3103 4656 3366 4563 
z
" transform="scale(0.015625)"/>
       </defs>
       <use xlink:href="#DejaVuSans-36"/>
       <use xlink:href="#DejaVuSans-30" x="63.623047"/>
      </g>
     </g>
    </g>
   </g>
   <g id="line2d_15">
    <path d="M 706.134365 593.774561 
L 706.423959 593.731611 
L 706.694253 594.239498 
L 706.810078 594.078477 
L 707.157616 593.783289 
L 707.292739 593.891971 
L 707.524436 594.171031 
L 707.543735 594.157239 
L 707.891273 594.034478 
L 708.103639 594.210833 
L 708.316006 594.645292 
L 708.335305 594.634807 
L 708.702141 594.536983 
L 709.068962 594.788809 
L 709.37787 594.765446 
L 709.551623 594.738044 
L 709.706077 594.815017 
L 709.937775 594.970163 
L 710.478364 595.013375 
L 710.594189 595.183156 
L 710.652117 595.153632 
L 710.787272 594.970807 
L 711.038237 594.56417 
L 711.057567 594.572779 
L 711.173392 594.68449 
L 711.501599 595.36269 
L 711.752595 595.314907 
L 711.926348 595.125238 
L 712.293169 595.244373 
L 712.524881 595.567178 
L 712.582794 595.513369 
L 712.9303 595.31602 
L 713.490204 595.41483 
L 713.779782 595.767316 
L 713.799112 595.746624 
L 713.972865 595.714088 
L 714.397614 595.875745 
L 714.667893 596.065549 
L 714.764435 595.899855 
L 714.841646 595.858272 
L 714.880276 595.879338 
L 714.918889 595.863113 
L 714.938188 595.817572 
L 715.03473 595.586137 
L 715.092642 595.640311 
L 715.266395 595.927256 
L 715.478762 596.473697 
L 715.498092 596.464738 
L 715.807 596.294584 
L 715.884212 596.245155 
L 716.096594 596.169113 
L 716.173837 596.174367 
L 716.19312 596.221268 
L 716.405502 596.477592 
L 716.714411 596.353488 
L 717.197072 596.602857 
L 717.235685 596.495224 
L 717.448068 596.170631 
L 717.54461 596.103897 
L 717.583191 596.174661 
L 717.988642 596.865334 
L 718.00794 596.828099 
L 718.258936 596.456741 
L 718.722299 596.735164 
L 719.147048 596.598119 
L 719.398044 596.764171 
L 719.649008 596.697485 
L 719.938617 596.583707 
L 719.957916 596.616816 
L 720.266824 597.021609 
L 720.730187 596.958929 
L 720.923239 596.821001 
L 721.000482 596.875716 
L 721.232147 597.245238 
L 721.483143 597.300318 
L 722.236099 597.070838 
L 722.429167 597.066299 
L 722.950457 597.421211 
L 723.085581 597.523144 
L 723.143541 597.630865 
L 723.201453 597.568288 
L 723.452417 597.409112 
L 723.606872 597.44319 
L 723.819238 597.639291 
L 724.03162 597.629569 
L 724.147477 597.722035 
L 724.475684 597.989274 
L 724.591525 597.836497 
L 724.958345 597.46804 
L 725.267254 598.208387 
L 725.305851 598.189405 
L 725.325182 598.123632 
L 725.537548 597.704252 
L 725.556847 597.710358 
L 725.807843 597.674109 
L 726.02021 597.838587 
L 726.116751 598.11046 
L 726.193963 598.087861 
L 726.387046 597.99824 
L 726.444959 597.933764 
L 726.502871 597.998328 
L 726.5415 598.036063 
L 726.599413 597.941093 
L 726.831078 597.715699 
L 726.908321 597.798992 
L 727.178616 598.443575 
L 727.236528 598.450681 
L 727.255827 598.406475 
L 727.526122 597.984838 
L 727.603365 597.9751 
L 727.641978 598.022828 
L 727.854361 598.120087 
L 728.008815 598.281704 
L 728.201851 598.446365 
L 728.298392 598.375807 
L 728.549388 598.13721 
L 728.974137 597.828913 
L 729.070679 597.635157 
L 729.14789 597.673187 
L 729.340958 597.788014 
L 729.746408 598.348676 
L 729.93946 598.554133 
L 730.171157 598.705837 
L 730.209755 598.749757 
L 730.267667 598.665185 
L 730.595906 598.369503 
L 730.808272 598.614222 
L 731.020639 598.994475 
L 731.136479 598.969729 
L 731.329531 598.753437 
L 731.522599 598.551422 
L 731.677053 598.522129 
L 732.179045 598.841968 
L 732.44934 598.714081 
L 732.507252 598.686473 
L 732.565165 598.732761 
L 733.376033 599.158 
L 734.051778 599.181132 
L 734.225531 599.205036 
L 734.341403 599.105924 
L 734.55377 598.578537 
L 734.592351 598.62241 
L 734.708192 598.948687 
L 734.901276 599.538826 
L 734.939889 599.525352 
L 735.05573 599.390929 
L 735.268096 599.1856 
L 735.654216 599.357113 
L 735.905212 599.617818 
L 735.924511 599.604407 
L 736.465116 599.109223 
L 736.580956 599.204328 
L 736.870534 599.342518 
L 737.237371 599.206689 
L 737.913131 599.632707 
L 737.97106 599.296699 
L 738.06757 599.342049 
L 738.221992 599.034691 
L 738.820542 599.516003 
L 739.032892 599.786644 
L 739.168048 599.634638 
L 739.264558 599.455064 
L 739.32247 599.495391 
L 739.419044 599.446344 
L 739.476956 599.412687 
L 739.515554 599.478976 
L 739.592797 599.578135 
L 739.650709 599.519787 
L 739.901705 599.390731 
L 739.998215 599.59401 
L 740.152701 599.952633 
L 740.22988 599.908602 
L 740.384366 599.875271 
L 740.403697 599.913165 
L 740.596717 600.445711 
L 740.635362 600.192677 
L 740.789784 598.037263 
L 741.079426 593.121734 
L 741.137354 593.124707 
L 741.175936 593.206792 
L 741.407601 595.847636 
L 741.639282 597.631493 
L 741.677927 597.500393 
L 741.85168 596.535956 
L 742.218501 592.61248 
L 742.295744 592.687839 
L 742.411585 593.096424 
L 742.855601 594.679609 
L 742.894246 594.575704 
L 743.18384 592.425744 
L 743.338262 591.61014 
L 743.376907 591.679188 
L 743.743744 592.914974 
L 743.975409 593.422217 
L 744.149162 593.592324 
L 745.075887 595.667768 
L 745.268971 595.913599 
L 745.577879 596.459023 
L 745.963967 597.085719 
L 746.079807 597.123661 
L 746.311536 597.582295 
L 746.504556 597.507246 
L 746.659042 597.761145 
L 746.987218 598.542559 
L 747.276859 598.560524 
L 747.354038 598.638062 
L 747.662947 599.030247 
L 748.203536 599.160321 
L 748.473847 598.978394 
L 748.724843 598.301736 
L 749.072349 596.786628 
L 749.284747 594.371964 
L 749.612922 586.577876 
L 749.979759 569.572066 
L 750.307998 542.43105 
L 750.809973 471.718998 
L 751.389145 395.90108 
L 751.775312 356.376352 
L 752.18073 304.794888 
L 752.219312 304.483491 
L 752.257973 305.006521 
L 752.315886 305.726566 
L 752.354467 304.997483 
L 752.508953 295.763892 
L 752.856459 253.95021 
L 753.995535 113.968947 
L 754.130706 111.6 
L 754.150021 111.637846 
L 754.381686 115.462592 
L 754.632682 117.732746 
L 754.825765 119.884082 
L 755.076761 130.468373 
L 755.520762 167.939645 
L 757.258402 348.80722 
L 757.818243 395.933577 
L 758.339566 433.029548 
L 759.594466 487.582737 
L 760.077127 497.418715 
L 761.177621 509.71381 
L 761.602354 513.527991 
L 762.142944 519.987507 
L 763.359262 534.352235 
L 764.845891 548.953994 
L 765.946385 556.650648 
L 766.409716 558.931652 
L 766.718624 560.695731 
L 768.436934 567.979325 
L 768.938926 569.437294 
L 769.228504 570.743089 
L 769.4795 571.297758 
L 769.962161 572.668578 
L 770.039404 572.806013 
L 770.40624 573.686085 
L 770.676504 574.380486 
L 771.19781 575.957885 
L 771.352232 576.262866 
L 771.931467 577.853778 
L 772.124487 578.027979 
L 773.224965 580.225754 
L 773.340806 580.507318 
L 773.611116 581.342222 
L 773.765539 581.545072 
L 773.784869 581.538044 
L 773.977953 581.542591 
L 774.132375 582.034953 
L 774.402702 582.673654 
L 775.039786 583.613465 
L 775.232853 583.839065 
L 775.657602 584.356356 
L 775.773443 584.416731 
L 775.889331 584.697428 
L 776.256104 585.493555 
L 776.391259 585.64921 
L 776.796741 586.353476 
L 777.047674 586.462238 
L 777.626908 587.190026 
L 777.684821 587.095636 
L 777.762064 587.001477 
L 777.800661 587.078752 
L 778.437809 588.10804 
L 778.746717 588.440542 
L 779.152135 589.039917 
L 779.461044 589.035903 
L 779.673394 588.969765 
L 779.692709 588.996459 
L 780.464964 590.215655 
L 780.735274 590.471033 
L 780.966956 590.693025 
L 781.565442 591.198606 
L 781.951593 591.716223 
L 782.318429 591.779468 
L 782.723848 592.021014 
L 782.955513 592.392134 
L 782.994174 592.447469 
L 783.071354 592.387706 
L 783.187242 592.445013 
L 783.22584 592.45239 
L 783.264421 592.381737 
L 783.360995 592.262219 
L 783.418907 592.295845 
L 783.554078 592.448336 
L 783.824326 593.088467 
L 784.249075 593.239559 
L 784.442158 593.285641 
L 784.557983 593.355483 
L 784.828309 593.48128 
L 785.137218 593.864149 
L 785.272325 593.588659 
L 785.484724 593.319083 
L 785.523305 593.374036 
L 786.17972 594.521943 
L 786.372803 594.320628 
L 786.411448 594.24817 
L 786.450046 594.334865 
L 786.739624 594.830455 
L 786.797552 594.775875 
L 786.874795 594.687455 
L 786.932707 594.739269 
L 787.569855 595.208316 
L 787.782205 595.206694 
L 788.091114 595.700455 
L 788.322779 595.673173 
L 788.554444 595.442016 
L 788.747528 595.370354 
L 788.979193 595.501898 
L 789.558428 596.489898 
L 789.59701 596.511146 
L 789.654938 596.438577 
L 789.944579 596.173787 
L 790.620261 596.937855 
L 790.851989 596.884396 
L 791.122237 597.103446 
L 791.991065 596.761262 
L 792.608881 597.497468 
L 792.879145 597.576078 
L 792.994969 597.660031 
L 793.690045 598.07755 
L 793.883112 598.011452 
L 793.998953 598.020149 
L 794.114778 598.165565 
L 794.385104 598.471691 
L 794.558857 598.478981 
L 794.61677 598.494379 
L 794.655367 598.427088 
L 794.906363 598.188165 
L 794.983606 598.253539 
L 795.311782 598.74269 
L 795.350427 598.707665 
L 795.62069 598.399305 
L 795.659335 598.502693 
L 795.929598 599.164041 
L 795.968259 599.202333 
L 796.026172 599.108977 
L 796.219192 598.958044 
L 796.43159 598.999523 
L 796.566745 599.412313 
L 796.663255 599.328854 
L 796.837008 599.217214 
L 796.894921 599.076377 
L 796.952849 599.161625 
L 797.010761 599.238152 
L 797.068674 599.156481 
L 797.126649 599.079064 
L 797.184578 599.162714 
L 797.551398 599.564017 
L 797.667239 599.483109 
L 797.937486 599.430739 
L 798.381566 599.684774 
L 798.400896 599.643748 
L 798.49739 599.41818 
L 798.574633 599.462894 
L 798.767717 599.595615 
L 799.173135 600.171023 
L 799.443398 600.083478 
L 799.694394 599.742073 
L 799.771637 599.82178 
L 800.003302 600.211827 
L 800.080545 600.30985 
L 800.138458 600.212829 
L 800.215701 600.111038 
L 800.273613 600.176771 
L 800.794872 600.556357 
L 800.949358 600.395765 
L 801.00727 600.3371 
L 801.065198 600.385861 
L 801.489932 600.630086 
L 801.798856 600.518415 
L 802.107764 601.023257 
L 802.146346 601.046405 
L 802.184944 600.994656 
L 802.416672 600.830694 
L 802.513182 600.902015 
L 802.725581 601.204485 
L 802.744848 601.194167 
L 802.880003 601.008758 
L 803.111684 600.719134 
L 803.26617 600.628957 
L 803.285421 600.646478 
L 803.61366 601.232347 
L 803.71017 601.11147 
L 803.941899 600.981261 
L 804.347317 601.10488 
L 804.443828 601.074125 
L 804.482489 601.124372 
L 804.675493 601.533966 
L 804.849309 601.72428 
L 805.042329 601.500762 
L 805.274058 601.268508 
L 805.428481 601.388216 
L 805.718058 601.604278 
L 805.891811 601.61202 
L 806.162138 601.72641 
L 806.355206 601.604111 
L 806.374536 601.623062 
L 806.548289 601.974133 
L 806.683397 602.061432 
L 806.934377 602.016861 
L 807.320544 601.638531 
L 807.474966 601.836524 
L 807.706695 602.095137 
L 807.725962 602.080272 
L 807.91903 602.052338 
L 808.170026 602.244043 
L 808.208624 602.164582 
L 808.382424 601.961629 
L 808.401691 601.970079 
L 808.961595 602.340873 
L 808.980926 602.314267 
L 809.193277 602.066313 
L 809.212591 602.080002 
L 809.772496 602.668495 
L 810.042759 602.592197 
L 810.3324 602.609924 
L 810.641261 602.449834 
L 810.737818 602.565353 
L 810.892256 602.611522 
L 811.278408 602.574129 
L 811.915491 602.85287 
L 812.14722 602.754045 
L 812.282328 602.891376 
L 812.552639 602.947602 
L 812.784304 602.781311 
L 812.900145 602.896194 
L 812.996718 603.025783 
L 813.05463 602.984796 
L 813.170455 603.027309 
L 813.344208 603.038374 
L 813.498646 603.00021 
L 813.711045 602.930383 
L 813.826869 602.773433 
L 814.077865 602.463674 
L 814.135794 602.564065 
L 814.464017 603.299826 
L 814.695698 603.157637 
L 814.985276 602.917275 
L 815.062518 603.046793 
L 815.371427 603.558551 
L 815.873355 603.469257 
L 816.027841 603.367077 
L 816.182264 603.504027 
L 816.259506 603.679976 
L 816.336749 603.594609 
L 816.607012 603.414916 
L 816.800096 603.423835 
L 816.896654 603.468661 
L 817.051092 603.477127 
L 817.186247 603.647742 
L 817.205578 603.552406 
L 817.24416 602.775985 
L 817.321402 602.856924 
L 818.016414 603.452667 
L 818.479809 603.536158 
L 818.943139 603.834939 
L 819.001068 603.687035 
L 819.174805 603.541206 
L 819.252048 603.387578 
L 819.309976 603.488097 
L 819.618884 603.985713 
L 819.831219 603.992311 
L 820.062948 596.345888 
L 820.275298 592.408764 
L 820.352541 592.520579 
L 820.429784 592.601256 
L 820.487697 592.557551 
L 820.584207 592.091858 
L 821.163441 588.002084 
L 821.221354 587.72975 
L 821.279266 587.737246 
L 821.337194 587.933378 
L 821.684685 589.316703 
L 821.839123 589.673061 
L 822.109433 590.895039 
L 822.47627 592.528417 
L 822.727266 593.399331 
L 823.402995 595.459187 
L 824.136652 596.844912 
L 824.522756 597.9444 
L 825.159903 599.028665 
L 825.410883 599.304497 
L 825.43015 599.291707 
L 825.584636 599.304847 
L 825.835632 599.838919 
L 826.549959 600.998654 
L 826.955393 601.196138 
L 827.476699 601.792874 
L 827.669783 601.666894 
L 827.746962 601.574516 
L 827.824205 601.50616 
L 827.882118 601.54841 
L 828.055871 601.736037 
L 828.268269 601.940739 
L 828.306867 601.884482 
L 828.384109 601.805291 
L 828.442022 601.870284 
L 828.924683 602.313544 
L 829.175679 602.195783 
L 829.407344 602.733377 
L 830.642993 606.718395 
L 830.720173 606.680493 
L 830.971169 606.660278 
L 831.33799 607.028043 
L 831.415232 606.902421 
L 832.129575 605.644385 
L 832.14889 605.674266 
L 832.592969 607.70432 
L 833.152873 610.115049 
L 834.176108 613.356095 
L 834.832523 615.6 
L 942.505792 615.581907 
L 943.162142 610.10384 
L 943.393824 608.1506 
L 943.953791 603.522843 
L 944.764628 598.564435 
L 945.382445 593.1121 
L 945.961616 589.580524 
L 946.502253 587.092003 
L 947.081424 584.428289 
L 947.293775 583.861887 
L 947.4096 583.861458 
L 947.467576 583.840098 
L 947.486906 583.79005 
L 947.872931 582.551211 
L 948.95422 579.747264 
L 949.147241 579.569232 
L 949.166555 579.591132 
L 949.301726 579.576903 
L 949.456086 579.23603 
L 949.861567 577.941769 
L 949.919543 577.96099 
L 949.977392 577.906124 
L 950.267049 577.340931 
L 950.498714 576.864754 
L 950.74971 576.368608 
L 950.788245 576.411701 
L 951.077886 576.625775 
L 951.348196 576.771628 
L 951.599192 576.949318 
L 951.734363 576.793957 
L 951.811543 576.666809 
L 951.830858 576.740681 
L 952.120515 577.439748 
L 952.294204 577.37342 
L 952.390714 577.421123 
L 953.935319 580.89056 
L 954.167 581.548927 
L 954.456515 582.262207 
L 954.591686 582.343513 
L 954.861997 583.163417 
L 955.074347 583.45715 
L 955.190172 583.638131 
L 955.325343 583.677965 
L 955.460498 583.816028 
L 955.885295 585.216571 
L 956.232801 585.682812 
L 956.753997 586.437246 
L 957.043638 586.872484 
L 957.294634 587.092933 
L 957.487654 587.162935 
L 958.047621 588.508389 
L 958.279287 588.970886 
L 958.723303 589.623434 
L 958.839128 589.76625 
L 958.993613 589.794192 
L 959.36045 590.131384 
L 959.650091 590.706348 
L 960.113422 591.126586 
L 960.306442 591.123653 
L 960.769773 591.679593 
L 961.020769 592.148409 
L 961.194585 592.068996 
L 961.445581 592.016253 
L 961.657916 592.543154 
L 961.851063 592.747658 
L 962.179238 592.78137 
L 962.352928 592.787364 
L 962.642569 592.992654 
L 962.758409 593.050461 
L 963.009405 593.478641 
L 963.086585 593.548404 
L 963.144561 593.470875 
L 963.356895 593.343758 
L 963.550042 593.463585 
L 963.781708 593.865874 
L 964.013373 594.091745 
L 964.264369 593.982458 
L 964.360879 594.04424 
L 964.553899 594.262161 
L 964.84354 594.477038 
L 965.017357 594.468318 
L 965.287556 594.474685 
L 965.480687 594.693695 
L 965.712353 594.81462 
L 965.828193 594.691859 
L 965.847524 594.745453 
L 966.137038 595.28276 
L 966.44601 595.103488 
L 966.600496 595.145254 
L 966.948002 595.287896 
L 967.102361 594.971705 
L 967.295508 594.777004 
L 967.662329 595.296068 
L 968.009835 595.23954 
L 968.492496 595.891786 
L 968.608336 595.726282 
L 968.801341 595.501334 
L 968.917308 595.587242 
L 969.110312 595.875132 
L 969.438488 595.857239 
L 969.650839 595.880419 
L 970.345961 596.18587 
L 970.461802 596.0326 
L 970.500447 596.011542 
L 970.538982 596.099962 
L 970.828623 596.507831 
L 971.272639 596.565622 
L 971.504304 596.763734 
L 971.600814 596.613612 
L 971.7553 596.535185 
L 972.102806 596.844133 
L 972.122121 596.827463 
L 972.218631 596.781437 
L 972.257292 596.831669 
L 972.334471 596.888784 
L 972.373117 596.840715 
L 972.585467 596.696936 
L 972.604782 596.721484 
L 972.894439 596.937545 
L 973.145435 596.76468 
L 973.16475 596.788878 
L 973.492925 597.048962 
L 973.647411 596.937744 
L 973.705276 596.880231 
L 973.763252 596.930963 
L 973.898407 596.905605 
L 973.956272 596.989748 
L 974.149403 597.175745 
L 974.323092 597.033596 
L 974.400272 596.998778 
L 974.438933 597.045003 
L 974.844415 597.494606 
L 974.902264 597.439494 
L 974.97957 597.409366 
L 975.018104 597.460512 
L 975.07608 597.502015 
L 975.133929 597.450194 
L 975.481562 597.265166 
L 976.948876 597.832554 
L 977.122566 597.789787 
L 977.682407 598.046739 
L 978.030024 597.57402 
L 978.087888 597.662113 
L 978.725036 598.507757 
L 979.072542 598.040252 
L 979.555203 598.44049 
L 980.018534 598.804901 
L 980.134374 598.84805 
L 980.26953 598.87251 
L 980.675011 598.738374 
L 980.926007 598.912955 
L 981.177003 599.094302 
L 981.350693 599.192555 
L 982.25815 599.795476 
L 982.489816 599.956258 
L 983.011138 600.217622 
L 983.262134 600.021641 
L 983.551648 600.437396 
L 983.821975 600.791878 
L 983.976461 600.890894 
L 984.130947 600.760438 
L 984.304636 600.612367 
L 984.323967 600.625412 
L 984.420477 600.715477 
L 984.478453 600.655039 
L 984.536302 600.612916 
L 984.594277 600.679976 
L 985.154134 601.213491 
L 985.347265 601.307285 
L 985.694771 601.481843 
L 985.733305 601.403376 
L 986.003616 601.068465 
L 986.215967 601.373709 
L 986.717943 602.096902 
L 987.065449 601.334265 
L 987.200604 601.477288 
L 987.857082 602.31856 
L 987.914946 602.250426 
L 988.088747 601.849401 
L 988.204588 601.631567 
L 988.281767 601.680742 
L 988.474914 601.938028 
L 988.687249 602.122165 
L 989.054085 602.11722 
L 989.305065 602.348608 
L 989.420906 602.302359 
L 989.787727 602.172778 
L 990.135233 602.474039 
L 990.154563 602.452425 
L 990.463408 601.887359 
L 990.540714 602.037465 
L 990.907551 602.537713 
L 990.984731 602.461376 
L 991.177862 602.273742 
L 991.197065 602.28561 
L 991.332237 602.475971 
L 991.486722 602.619479 
L 991.506037 602.609193 
L 992.008029 602.214392 
L 992.104539 602.352129 
L 992.355535 602.862314 
L 992.413384 602.888125 
L 992.432714 602.848331 
L 992.761017 602.335038 
L 993.320857 602.802011 
L 993.591168 602.390103 
L 993.668363 602.343727 
L 993.726339 602.41163 
L 994.11249 602.685967 
L 994.228331 602.411216 
L 994.402021 602.34228 
L 994.517845 602.454039 
L 994.710992 602.602532 
L 995.154992 602.428935 
L 995.270833 602.592595 
L 995.328809 602.487474 
L 995.483168 602.409658 
L 995.656984 602.451305 
L 995.927311 602.760651 
L 996.062339 602.7479 
L 996.236156 602.550456 
L 996.429176 602.352924 
L 996.776793 602.766223 
L 996.795997 602.736517 
L 997.124299 602.313257 
L 997.162833 602.370786 
L 997.471805 602.631324 
L 997.915805 602.270156 
L 997.973781 602.376573 
L 998.186131 602.556815 
L 998.379152 602.47675 
L 998.688123 602.442839 
L 998.958434 602.578405 
L 999.286609 602.465415 
L 999.692091 602.036178 
L 999.769271 602.106107 
L 1000.000952 602.292136 
L 1000.116777 602.293098 
L 1000.290593 602.299036 
L 1000.541589 602.472768 
L 1000.889079 602.469779 
L 1001.178609 602.113953 
L 1001.391071 602.167301 
L 1001.56476 602.203239 
L 1001.970242 602.388744 
L 1002.298418 602.241603 
L 1002.588075 602.400103 
L 1002.74256 602.388807 
L 1003.283071 602.057625 
L 1003.398911 602.013864 
L 1003.611246 601.804536 
L 1003.649907 601.832859 
L 1003.900887 601.897184 
L 1004.190544 601.833328 
L 1004.383564 601.812755 
L 1004.499389 601.892669 
L 1004.71174 602.22421 
L 1004.78903 602.173565 
L 1004.98205 602.17219 
L 1005.097891 602.222993 
L 1005.136536 602.181657 
L 1005.522687 601.907344 
L 1006.294879 602.395079 
L 1006.526671 602.071592 
L 1006.77754 601.876715 
L 1007.163692 601.945158 
L 1007.337508 601.911604 
L 1007.781524 601.75215 
L 1007.8395 601.876373 
L 1007.897349 601.84092 
L 1007.916679 601.825379 
L 1007.955324 601.174357 
L 1008.051835 601.322134 
L 1008.2835 601.237919 
L 1008.553826 601.372803 
L 1008.708312 601.682061 
L 1008.882002 601.975994 
L 1009.055818 601.923815 
L 1009.229508 601.855586 
L 1009.577014 601.451922 
L 1009.63499 601.548553 
L 1009.789475 601.625947 
L 1009.924631 601.514594 
L 1010.156296 601.173093 
L 1010.19483 601.203555 
L 1010.503802 601.484061 
L 1010.523133 601.409369 
L 1010.812647 599.634296 
L 1011.025109 598.936104 
L 1011.160153 598.931549 
L 1011.642814 599.518324 
L 1011.739451 599.339744 
L 1011.990447 598.464362 
L 1012.067627 598.534991 
L 1012.164137 598.796515 
L 1012.434447 599.369832 
L 1012.781953 599.256086 
L 1013.245284 599.493904 
L 1013.785921 600.171969 
L 1013.882431 600.26678 
L 1014.036917 600.284436 
L 1014.210607 600.242384 
L 1014.365092 600.229999 
L 1014.674064 600.274873 
L 1014.751259 600.144648 
L 1014.905745 599.97567 
L 1014.92506 599.983301 
L 1015.09875 600.095704 
L 1015.253235 600.236295 
L 1015.446256 600.15247 
L 1015.658606 600.10223 
L 1016.276423 600.114043 
L 1016.411578 599.996648 
L 1016.662574 599.578087 
L 1016.701235 599.632238 
L 1017.164566 600.095792 
L 1017.299721 600.013517 
L 1017.454207 599.760165 
L 1017.550717 599.846884 
L 1017.801713 600.116428 
L 1017.840358 600.076968 
L 1018.110558 599.94776 
L 1018.342223 600.077596 
L 1018.767036 600.133765 
L 1018.902191 600.069495 
L 1019.172517 600.245349 
L 1019.191721 600.203186 
L 1019.500693 599.735912 
L 1019.809538 599.981068 
L 1020.060534 600.151301 
L 1020.33086 600.134679 
L 1020.543195 600.27186 
L 1020.581856 600.207463 
L 1021.141697 599.464357 
L 1021.276852 599.509493 
L 1021.759513 599.889715 
L 1021.85615 599.830246 
L 1022.222971 599.466837 
L 1022.242175 599.489993 
L 1022.551146 599.919389 
L 1023.361983 600.47467 
L 1023.979815 601.341721 
L 1024.19215 601.635789 
L 1024.964469 603.509933 
L 1025.118954 603.796783 
L 1025.833281 605.250975 
L 1026.354588 605.438618 
L 1026.644118 605.195267 
L 1026.953089 604.905492 
L 1027.802587 602.557348 
L 1028.207942 600.803659 
L 1029.076755 597.3652 
L 1029.327751 596.084278 
L 1029.636722 594.909471 
L 1029.791082 594.322297 
L 1030.582714 590.671569 
L 1031.297057 585.281636 
L 1031.683208 578.858567 
L 1032.648531 561.868265 
L 1033.169837 554.870289 
L 1033.478698 551.094495 
L 1034.000004 545.265737 
L 1034.038539 545.313632 
L 1034.212355 545.791836 
L 1034.32818 545.951871 
L 1034.34751 545.926974 
L 1034.579176 544.984055 
L 1034.791527 542.426686 
L 1034.984658 537.002483 
L 1035.312833 522.823116 
L 1035.795494 501.522981 
L 1036.04649 498.752961 
L 1036.393996 496.468562 
L 1036.432641 496.518094 
L 1036.587127 497.098757 
L 1036.799478 498.657228 
L 1037.088992 502.516545 
L 1037.397964 508.400407 
L 1039.36727 550.198818 
L 1040.120131 559.673391 
L 1040.660768 565.256985 
L 1041.548911 571.626174 
L 1042.610744 575.74947 
L 1042.707254 575.813518 
L 1042.977581 577.296367 
L 1043.228561 578.484188 
L 1044.135907 581.727197 
L 1044.425564 582.703869 
L 1044.637899 583.414542 
L 1045.178536 585.33143 
L 1045.757708 586.53596 
L 1046.35621 588.393188 
L 1046.800336 589.04708 
L 1047.128512 590.20862 
L 1047.340863 590.597125 
L 1047.437373 590.359823 
L 1047.553198 590.2461 
L 1047.572528 590.254177 
L 1047.727014 590.716117 
L 1047.958679 591.15223 
L 1048.132496 591.777329 
L 1048.383491 592.367515 
L 1048.692336 592.766847 
L 1049.117149 593.594907 
L 1049.445324 593.931829 
L 1049.541834 593.933252 
L 1049.561149 593.888585 
L 1049.638329 593.71917 
L 1049.69632 593.850134 
L 1049.927985 594.607613 
L 1050.14032 595.136096 
L 1050.487826 595.564721 
L 1050.642312 595.696608 
L 1050.873978 595.550699 
L 1050.893308 595.580039 
L 1051.221484 596.423799 
L 1051.260129 596.405913 
L 1051.549786 596.380015 
L 1051.704145 596.774847 
L 1051.93581 597.37838 
L 1052.244782 597.613734 
L 1052.495778 597.327298 
L 1052.553643 597.425408 
L 1053.074949 598.323588 
L 1053.132925 598.284828 
L 1053.267969 598.221051 
L 1053.2873 598.244573 
L 1053.499761 598.61194 
L 1053.53828 598.571296 
L 1053.731427 598.320981 
L 1053.789276 598.431357 
L 1054.001626 599.072521 
L 1054.233419 599.398036 
L 1054.387778 599.470883 
L 1054.696749 600.03587 
L 1054.909084 600.346329 
L 1054.96706 600.380113 
L 1055.005594 600.302814 
L 1055.217945 600.025647 
L 1055.23726 600.042587 
L 1055.411076 600.323411 
L 1055.662072 600.727655 
L 1055.681402 600.711153 
L 1056.009578 600.372697 
L 1056.067427 600.442308 
L 1056.241243 600.826998 
L 1056.357084 601.083521 
L 1056.41506 601.02968 
L 1056.530884 600.784453 
L 1056.685259 600.628719 
L 1057.148717 601.154484 
L 1057.167921 601.139325 
L 1057.380382 601.093386 
L 1057.534741 601.220741 
L 1057.805068 601.530874 
L 1058.075378 601.579118 
L 1058.365035 602.049024 
L 1058.500064 602.120639 
L 1058.847697 602.687549 
L 1058.886215 602.64227 
L 1059.137211 602.445009 
L 1059.253052 602.486957 
L 1059.600558 602.718631 
L 1059.948174 602.902561 
L 1060.19917 603.073844 
L 1060.315011 603.152526 
L 1060.488701 603.384446 
L 1060.739697 603.80912 
L 1060.913497 603.87529 
L 1061.222358 603.825456 
L 1061.318852 604.013083 
L 1061.531329 604.249748 
L 1061.801529 604.454267 
L 1061.89815 604.50957 
L 1062.16835 604.730322 
L 1062.206995 604.675416 
L 1062.380811 604.466406 
L 1062.438676 604.531868 
L 1062.631807 604.973259 
L 1062.959983 605.492856 
L 1063.288158 605.078468 
L 1063.326819 605.155656 
L 1063.59713 605.717844 
L 1063.925305 605.883038 
L 1064.292142 606.102454 
L 1064.697624 606.658633 
L 1064.987138 606.755765 
L 1065.257464 607.080707 
L 1065.315314 606.985332 
L 1065.469799 606.866435 
L 1065.48913 606.88541 
L 1066.184126 607.707476 
L 1066.570293 607.598436 
L 1066.995089 608.016106 
L 1067.439106 608.415645 
L 1067.612922 608.395676 
L 1067.863902 608.293449 
L 1068.056922 608.251898 
L 1068.114787 608.251397 
L 1068.153432 608.308974 
L 1068.365783 608.81764 
L 1068.578244 608.9918 
L 1068.80991 608.899318 
L 1069.00293 608.683933 
L 1069.118755 608.661826 
L 1069.138085 608.719188 
L 1069.408412 609.303809 
L 1069.813878 609.652504 
L 1069.929718 609.586954 
L 1069.968253 609.667497 
L 1070.257894 610.056415 
L 1070.277224 610.046518 
L 1070.547424 609.862039 
L 1070.721225 610.057877 
L 1070.991551 610.321293 
L 1071.242547 610.451987 
L 1071.532077 610.620813 
L 1071.551392 610.596981 
L 1071.725208 610.53609 
L 1071.841049 610.693907 
L 1072.092029 610.951511 
L 1072.111359 610.930517 
L 1072.188539 610.862789 
L 1072.2272 610.924523 
L 1072.420204 611.082189 
L 1072.729176 611.54405 
L 1072.787041 611.593645 
L 1072.845017 611.540441 
L 1072.960857 611.578669 
L 1073.559343 612.015402 
L 1073.791009 612.010982 
L 1074.099869 612.294604 
L 1074.177176 612.412071 
L 1074.254355 612.617353 
L 1074.293 612.461038 
L 1074.38951 612.130897 
L 1074.46669 612.200231 
L 1074.582531 611.809937 
L 1074.640506 612.074783 
L 1074.833527 612.59488 
L 1075.065192 613.171123 
L 1075.258323 613.306142 
L 1075.393494 613.219932 
L 1075.528649 613.104779 
L 1075.567184 613.138134 
L 1075.89547 613.27816 
L 1076.011311 613.068641 
L 1076.08849 612.819781 
L 1076.146355 612.915697 
L 1076.358817 613.583452 
L 1076.513176 613.941479 
L 1076.725637 614.028222 
L 1076.995964 614.590426 
L 1077.053813 614.488525 
L 1077.266164 614.282543 
L 1077.401319 614.218313 
L 1077.459295 614.175315 
L 1077.497829 614.234585 
L 1077.555805 614.314149 
L 1077.61367 614.243599 
L 1077.671645 614.203901 
L 1077.69096 614.245571 
L 1077.78747 614.489089 
L 1077.826131 614.398427 
L 1077.903311 614.200141 
L 1077.961286 614.299586 
L 1078.115646 614.383427 
L 1078.173621 614.56514 
L 1078.347327 614.886004 
L 1078.714147 615.267029 
L 1078.907278 615.6 
L 1090.684312 615.501381 
L 1090.935308 615.230661 
L 1091.147659 615.356538 
L 1091.282814 615.230152 
L 1091.514479 614.743585 
L 1091.53381 614.778721 
L 1091.823451 615.138147 
L 1091.842782 615.11984 
L 1092.306112 614.578884 
L 1092.808104 614.574552 
L 1092.885284 614.629664 
L 1092.923929 614.564361 
L 1093.15561 613.9195 
L 1093.3293 613.590757 
L 1093.348614 613.599939 
L 1093.657586 613.708597 
L 1093.850606 613.85201 
L 1094.005092 613.929977 
L 1094.256088 613.733216 
L 1094.603594 613.010572 
L 1094.815929 613.056407 
L 1095.144104 612.911381 
L 1095.626766 612.806999 
L 1095.877762 612.253387 
L 1096.012933 612.332149 
L 1096.090223 612.411642 
L 1096.148088 612.368541 
L 1096.341219 612.105261 
L 1096.514909 611.916028 
L 1096.785235 612.125643 
L 1096.843084 612.007644 
L 1097.152056 611.622493 
L 1097.267896 611.548597 
L 1097.422382 611.47598 
L 1097.847068 611.557794 
L 1098.136709 611.076283 
L 1098.329729 611.067674 
L 1098.44557 610.83701 
L 1098.71588 610.153022 
L 1098.773856 610.199263 
L 1098.986207 610.509038 
L 1099.121362 610.535549 
L 1099.140692 610.518323 
L 1099.237203 610.299448 
L 1099.410892 609.927613 
L 1099.468868 609.965173 
L 1099.719864 610.024037 
L 1099.951529 609.631749 
L 1100.202525 609.402666 
L 1100.22184 609.429567 
L 1100.41486 609.528464 
L 1100.550031 609.416904 
L 1100.723832 609.046563 
L 1100.897521 608.833037 
L 1101.206493 608.725412 
L 1101.322334 608.831638 
L 1101.553999 608.970671 
L 1102.13317 608.2672 
L 1102.32619 607.890476 
L 1102.499991 607.685894 
L 1102.596501 607.618746 
L 1102.615832 607.667706 
L 1102.712342 607.855929 
L 1102.789648 607.806476 
L 1103.021313 607.573372 
L 1103.137154 607.541447 
L 1103.233648 607.432836 
L 1103.291513 607.394243 
L 1103.349489 607.439331 
L 1103.426668 607.364322 
L 1103.83215 606.738769 
L 1103.967305 606.980348 
L 1104.044501 606.903192 
L 1104.720293 606.270231 
L 1104.971289 605.810485 
L 1105.33811 605.968365 
L 1105.897966 605.182087 
L 1106.206811 605.200776 
L 1106.322763 604.804329 
L 1106.496452 604.537107 
L 1106.786109 604.486327 
L 1106.863289 604.363073 
L 1107.094954 604.071963 
L 1107.210795 604.133236 
L 1107.384595 604.299296 
L 1107.423256 604.246624 
L 1108.234093 603.205635 
L 1108.485089 603.151334 
L 1108.620244 603.171827 
L 1108.793934 603.045481 
L 1109.102906 602.574479 
L 1109.662747 602.104406 
L 1110.106763 601.260408 
L 1110.280579 601.440133 
L 1110.435065 601.487447 
L 1110.724579 601.422541 
L 1110.84042 601.38576 
L 1111.535543 600.524488 
L 1111.709232 600.463612 
L 1111.940898 600.597351 
L 1111.960228 600.573193 
L 1112.28853 599.884079 
L 1112.404355 600.015567 
L 1112.578045 600.045115 
L 1112.674555 599.810111 
L 1112.925551 599.299608 
L 1113.041391 599.192206 
L 1113.080037 599.161513 
L 1113.138012 599.241944 
L 1113.195877 599.298638 
L 1113.234523 599.238987 
L 1113.755718 598.338565 
L 1113.794363 598.448217 
L 1113.98751 598.862819 
L 1114.006714 598.839544 
L 1114.547351 597.819008 
L 1114.624531 597.934448 
L 1114.779016 597.983455 
L 1115.474028 597.526968 
L 1115.821519 596.678454 
L 1115.898825 596.750196 
L 1116.111176 596.798949 
L 1116.246331 596.657421 
L 1116.497327 596.307287 
L 1116.555176 596.394554 
L 1116.786968 596.55602 
L 1116.844833 596.456749 
L 1117.095829 595.941485 
L 1117.230984 595.822683 
L 1117.424004 595.705797 
L 1117.57849 595.725289 
L 1117.636466 595.751529 
L 1117.694315 595.683078 
L 1117.810155 595.401276 
L 1118.080466 594.747886 
L 1118.331462 595.073011 
L 1118.370123 595.048678 
L 1118.601788 594.772473 
L 1118.775478 594.415566 
L 1118.833454 594.502372 
L 1119.026474 594.623336 
L 1119.122984 594.528072 
L 1119.37398 593.945359 
L 1119.605645 593.677397 
L 1119.779446 593.693319 
L 1120.030442 593.597506 
L 1120.184927 593.304639 
L 1120.281438 593.041161 
L 1120.358617 593.069341 
L 1120.551764 593.347573 
L 1120.590298 593.42674 
L 1120.628944 593.350252 
L 1120.860609 592.835624 
L 1120.879939 592.847834 
L 1121.169581 593.013155 
L 1121.188784 592.949243 
L 1121.478425 592.334923 
L 1121.710107 592.236424 
L 1122.019078 592.113266 
L 1122.443764 591.073421 
L 1122.578919 591.180959 
L 1122.96507 591.092547 
L 1123.389756 590.890063 
L 1123.698728 590.520024 
L 1124.181389 589.932629 
L 1124.335875 589.99259 
L 1124.39374 589.987042 
L 1124.413054 589.957065 
L 1124.779891 589.584371 
L 1125.397707 589.023693 
L 1125.417038 589.050013 
L 1125.494217 589.163091 
L 1125.552193 589.074934 
L 1125.725883 588.992349 
L 1125.938234 588.760461 
L 1126.478871 587.700568 
L 1126.787716 587.792899 
L 1126.961532 587.801699 
L 1127.424863 587.307127 
L 1127.579348 587.276824 
L 1127.830344 587.36243 
L 1127.946185 587.136448 
L 1128.139189 586.688403 
L 1128.293675 586.800233 
L 1128.370871 586.973448 
L 1128.428846 586.875632 
L 1128.969357 586.132733 
L 1129.394169 585.848983 
L 1129.703014 585.634218 
L 1129.818854 585.745309 
L 1129.95401 585.783354 
L 1130.089165 585.642914 
L 1130.649133 584.416302 
L 1130.842153 584.475349 
L 1131.151124 584.477734 
L 1131.652989 584.063068 
L 1131.749626 584.277499 
L 1131.807475 584.374417 
L 1131.884782 584.327317 
L 1132.019826 584.100048 
L 1132.425308 583.361799 
L 1132.753483 583.194125 
L 1132.985149 582.971139 
L 1133.467921 582.660466 
L 1133.757451 582.579137 
L 1134.008447 582.229377 
L 1134.162933 582.215696 
L 1134.240112 582.051337 
L 1134.433259 581.808447 
L 1134.761435 581.694486 
L 1135.321275 581.201313 
L 1135.765402 580.975951 
L 1135.997068 580.796965 
L 1136.035602 580.838635 
L 1136.228749 581.037335 
L 1136.286598 580.961595 
L 1136.78859 580.189665 
L 1136.8851 580.327346 
L 1137.0589 580.381552 
L 1137.174741 580.282321 
L 1137.580223 579.63401 
L 1137.599553 579.648224 
L 1137.869737 579.611872 
L 1138.178709 579.100932 
L 1138.429705 579.07059 
L 1138.873721 578.736466 
L 1139.066852 578.547504 
L 1139.375713 578.554777 
L 1139.510868 578.318247 
L 1139.877704 577.616016 
L 1139.954884 577.659864 
L 1140.321705 577.817927 
L 1140.495521 577.626779 
L 1140.727186 577.328792 
L 1141.074692 577.305199 
L 1141.325688 577.04994 
L 1141.71184 576.530797 
L 1141.80835 576.631387 
L 1142.117195 576.688574 
L 1142.928158 575.466603 
L 1142.986007 575.592162 
L 1143.179154 575.92251 
L 1143.198469 575.903758 
L 1143.372174 575.592266 
L 1143.681146 575.240884 
L 1143.854835 575.30261 
L 1144.105815 575.411428 
L 1144.240987 575.301147 
L 1144.530628 574.858659 
L 1144.549832 574.870376 
L 1144.723648 574.877594 
L 1145.302819 574.424128 
L 1145.457305 574.329205 
L 1145.746946 574.421139 
L 1145.959297 574.073597 
L 1146.229607 573.562291 
L 1146.268142 573.593834 
L 1146.596444 573.935128 
L 1146.615648 573.907671 
L 1146.963265 573.180019 
L 1147.02113 573.211331 
L 1147.19493 573.168985 
L 1147.677591 572.939124 
L 1147.967122 573.055938 
L 1147.986452 573.009189 
L 1148.198787 572.47747 
L 1148.314738 572.323508 
L 1148.353273 572.41533 
L 1148.430579 572.603816 
L 1148.507759 572.539601 
L 1148.604269 572.340997 
L 1148.89391 571.595347 
L 1148.932444 571.645364 
L 1149.241416 571.916219 
L 1149.434436 571.978955 
L 1149.608252 571.768943 
L 1149.820587 571.351201 
L 1149.859232 571.365796 
L 1150.148763 571.371058 
L 1150.341894 571.320087 
L 1150.419089 571.238249 
L 1150.70873 570.679829 
L 1150.747375 570.74359 
L 1150.940396 570.942529 
L 1151.751232 570.229359 
L 1151.963694 570.348098 
L 1152.118069 570.271658 
L 1152.427041 569.55577 
L 1152.48489 569.68051 
L 1152.755216 570.120892 
L 1153.044857 569.359335 
L 1153.160698 569.465538 
L 1153.334387 569.714318 
L 1153.392363 569.650613 
L 1153.778514 569.059743 
L 1154.01018 568.561204 
L 1154.068045 568.628535 
L 1154.22253 568.655348 
L 1154.473526 568.433865 
L 1154.531375 568.565704 
L 1154.685861 568.690491 
L 1154.840347 568.618789 
L 1155.014037 568.514335 
L 1155.168522 568.470916 
L 1155.496825 567.9821 
L 1155.689845 567.974921 
L 1156.075996 567.584143 
L 1156.172506 567.464761 
L 1156.211151 567.533204 
L 1156.423486 567.911415 
L 1156.462147 567.888402 
L 1156.713143 567.61187 
L 1157.079964 567.274257 
L 1157.272984 567.01511 
L 1157.466004 566.843406 
L 1157.601159 566.987097 
L 1157.659135 567.069873 
L 1157.736315 567.006485 
L 1157.967996 566.683268 
L 1158.199661 566.400647 
L 1158.238307 566.380035 
L 1158.276968 566.44692 
L 1158.431327 566.515729 
L 1159.493286 565.957443 
L 1159.68629 565.895757 
L 1159.879437 565.866035 
L 1160.111103 565.744713 
L 1160.226943 565.638185 
L 1160.651613 565.097078 
L 1160.806099 565.082085 
L 1161.192266 565.280364 
L 1161.867931 564.04081 
L 1162.003103 564.200423 
L 1162.254099 564.447606 
L 1162.389254 564.36262 
L 1162.987756 563.662218 
L 1163.045605 563.771926 
L 1163.258066 564.10605 
L 1163.373907 564.006612 
L 1163.721413 563.244301 
L 1163.914417 563.22585 
L 1164.43574 563.435337 
L 1164.763915 563.200842 
L 1164.99558 562.968413 
L 1165.150066 562.768123 
L 1165.381732 562.236619 
L 1165.420393 562.284155 
L 1165.671373 562.649425 
L 1165.787213 562.605107 
L 1166.211899 562.16529 
L 1166.366385 562.170791 
L 1166.443691 562.109732 
L 1166.482225 562.155878 
L 1166.559516 562.229194 
L 1166.617381 562.177214 
L 1166.771866 561.922177 
L 1167.003532 561.327874 
L 1167.022862 561.349289 
L 1167.254528 561.596535 
L 1167.312377 561.542146 
L 1167.505524 561.504173 
L 1167.621348 561.569492 
L 1167.698544 561.672999 
L 1167.75652 561.600232 
L 1168.277826 561.068521 
L 1168.548026 561.181853 
L 1168.625332 561.27831 
L 1168.683181 561.232228 
L 1168.895532 560.938256 
L 1169.107993 560.632781 
L 1169.243149 560.663577 
L 1169.494145 560.707719 
L 1169.667834 560.493311 
L 1169.880185 560.279333 
L 1169.957491 560.199037 
L 1170.01534 560.268625 
L 1170.092646 560.320939 
L 1170.131181 560.276328 
L 1170.189157 560.222805 
L 1170.227675 560.302338 
L 1170.304981 560.459741 
L 1170.382161 560.384899 
L 1170.922814 559.917418 
L 1171.270304 560.069686 
L 1171.405475 560.028 
L 1171.849475 559.498976 
L 1172.081157 559.238773 
L 1172.196981 559.28972 
L 1172.312822 559.25638 
L 1172.351467 559.236833 
L 1172.390128 559.312892 
L 1172.583132 559.537125 
L 1172.698973 559.427162 
L 1172.988614 558.799448 
L 1173.123769 558.835808 
L 1173.278144 558.856842 
L 1173.297475 558.818479 
L 1173.393969 558.65377 
L 1173.451961 558.699049 
L 1173.490606 558.732714 
L 1173.548455 558.641599 
L 1173.606447 558.575557 
L 1173.664296 558.658953 
L 1173.702941 558.719836 
L 1173.760806 558.633268 
L 1174.050447 558.31862 
L 1174.166287 558.426786 
L 1174.282112 558.520087 
L 1174.320773 558.468718 
L 1174.745459 558.014521 
L 1175.517761 557.570443 
L 1175.768757 557.919678 
L 1175.826606 557.847888 
L 1176.502414 557.183384 
L 1176.75341 557.24058 
L 1177.332582 556.99102 
L 1177.506382 557.054725 
L 1177.776582 557.056594 
L 1178.297904 556.468697 
L 1178.52957 556.148612 
L 1178.742031 556.237031 
L 1178.915721 556.440731 
L 1179.050876 556.496178 
L 1179.224692 556.324322 
L 1179.649378 555.709724 
L 1179.668709 555.722769 
L 1179.842398 555.970134 
L 1179.996884 556.005453 
L 1180.016215 555.976828 
L 1180.402366 555.525746 
L 1180.42168 555.539649 
L 1180.692007 555.680431 
L 1180.904358 555.448424 
L 1181.020182 555.23768 
L 1181.078047 555.303532 
L 1181.329043 555.581439 
L 1181.367688 555.490761 
L 1181.715194 554.818078 
L 1181.927529 554.76725 
L 1182.139991 554.796432 
L 1182.584007 554.790844 
L 1182.854317 554.766861 
L 1183.105313 554.340557 
L 1183.163178 554.326034 
L 1183.201823 554.385773 
L 1183.375513 554.471203 
L 1183.974142 553.9721 
L 1184.01266 554.031458 
L 1184.205807 554.316368 
L 1184.244341 554.263712 
L 1184.881488 553.28301 
L 1184.977999 553.402026 
L 1185.344819 553.689464 
L 1185.53795 553.545534 
L 1186.117122 552.938258 
L 1186.290811 552.909894 
L 1186.503289 552.710026 
L 1186.599783 552.618387 
L 1186.657648 552.695423 
L 1186.966619 552.98833 
L 1187.140436 552.834154 
L 1187.449281 552.576248 
L 1187.545791 552.62826 
L 1187.623097 552.724581 
L 1187.680946 552.65012 
L 1187.951273 552.454115 
L 1188.163607 552.470363 
L 1188.240787 552.454918 
L 1188.260118 552.435593 
L 1188.453249 552.091191 
L 1188.723575 551.656747 
L 1188.916595 551.757639 
L 1189.206236 551.95002 
L 1189.766077 551.669243 
L 1190.229424 551.334245 
L 1190.364579 551.437609 
L 1190.557599 551.510783 
L 1191.098236 551.045575 
L 1191.387877 550.614247 
L 1191.967049 551.130545 
L 1191.986379 551.107778 
L 1192.275909 550.600002 
L 1192.411065 550.47213 
L 1192.44971 550.505716 
L 1192.54622 550.572927 
L 1192.604196 550.507433 
L 1192.893726 550.316968 
L 1193.357057 550.525844 
L 1194.16802 550.033434 
L 1194.650682 549.953885 
L 1194.921008 549.594793 
L 1195.442188 549.794375 
L 1195.693184 549.451857 
L 1195.94418 548.802743 
L 1196.04069 548.886409 
L 1196.253151 549.323444 
L 1196.523351 549.740344 
L 1196.735813 549.224889 
L 1196.967478 548.566681 
L 1197.006012 548.6196 
L 1197.314984 549.125086 
L 1197.334314 549.094895 
L 1197.66249 548.493127 
L 1197.73967 548.577739 
L 1198.009996 548.830852 
L 1198.029311 548.810001 
L 1198.415478 548.562444 
L 1198.782298 548.624711 
L 1198.917454 548.252614 
L 1199.110474 547.937473 
L 1199.129804 547.969246 
L 1199.36147 548.383649 
L 1199.400115 548.339595 
L 1199.998617 547.801826 
L 1200.307462 547.902464 
L 1200.404099 547.84104 
L 1200.442633 547.87244 
L 1200.577788 547.851962 
L 1200.925294 547.622793 
L 1200.963939 547.595066 
L 1201.0026 547.662014 
L 1201.07978 547.76231 
L 1201.137756 547.719178 
L 1201.195605 547.706578 
L 1201.234266 547.755323 
L 1201.292115 547.804577 
L 1201.330776 547.748359 
L 1201.620417 547.417256 
L 1202.083748 547.119596 
L 1202.122282 547.192777 
L 1202.199588 547.368646 
L 1202.276768 547.304027 
L 1203.068401 546.716615 
L 1203.454441 546.981628 
L 1203.744082 546.774382 
L 1204.053054 546.38827 
L 1204.188098 546.413167 
L 1204.342584 546.434933 
L 1204.57425 546.549021 
L 1204.748066 546.50499 
L 1204.902552 546.289079 
L 1205.076241 546.207329 
L 1205.346552 546.106063 
L 1205.694058 545.74732 
L 1205.752034 545.813307 
L 1206.041564 545.857521 
L 1206.427715 545.681961 
L 1206.620735 545.763879 
L 1206.852512 545.809905 
L 1207.006887 545.839047 
L 1207.200018 545.645252 
L 1207.89503 544.728629 
L 1207.953005 544.791667 
L 1208.454871 545.244831 
L 1208.744512 545.265944 
L 1209.053372 545.116355 
L 1209.227173 544.85631 
L 1209.362344 544.79204 
L 1209.594009 544.72587 
L 1209.78703 544.614104 
L 1209.825675 544.58555 
L 1209.86432 544.65168 
L 1209.96083 544.803686 
L 1210.018806 544.748001 
L 1210.211826 544.457328 
L 1210.385642 544.245869 
L 1210.404846 544.257444 
L 1210.617308 544.532655 
L 1210.771667 544.224939 
L 1210.868304 543.904551 
L 1210.945483 543.950085 
L 1211.119173 544.209478 
L 1211.273659 544.306006 
L 1211.447475 544.168245 
L 1211.67914 543.956738 
L 1211.698471 543.970149 
L 1212.161802 544.170312 
L 1212.277642 543.949679 
L 1212.489977 543.604474 
L 1212.818279 543.596938 
L 1212.972638 543.642281 
L 1213.262295 543.787832 
L 1213.609786 543.780002 
L 1213.918646 543.36187 
L 1213.957292 543.435067 
L 1214.150438 543.861673 
L 1214.188957 543.815631 
L 1214.497929 543.37629 
L 1214.555793 543.433843 
L 1214.6331 543.470648 
L 1214.671618 543.4306 
L 1215.115761 542.813784 
L 1215.385961 542.492816 
L 1215.598422 542.573294 
L 1215.965243 543.023724 
L 1216.563745 542.687724 
L 1216.9691 542.710189 
L 1217.142916 542.672899 
L 1217.335936 542.505487 
L 1217.567713 542.194806 
L 1217.586917 542.208168 
L 1217.876573 542.618319 
L 1217.953753 542.562682 
L 1218.378549 541.764798 
L 1218.39788 541.781952 
L 1218.726055 542.284601 
L 1218.745386 542.267589 
L 1219.170072 541.707253 
L 1219.228047 541.810832 
L 1219.498374 542.077745 
L 1219.575553 541.977004 
L 1219.845864 541.435372 
L 1219.903729 541.513283 
L 1220.077545 541.64842 
L 1220.502215 541.74502 
L 1220.656701 541.766213 
L 1220.830517 541.606265 
L 1221.100717 541.289916 
L 1221.197353 541.459665 
L 1221.390358 541.610439 
L 1221.506198 541.57132 
L 1221.91168 540.897611 
L 1221.969529 541.042217 
L 1222.181991 541.323867 
L 1222.336366 541.318279 
L 1222.510182 541.013472 
L 1222.703186 540.719587 
L 1222.722517 540.731352 
L 1222.973513 540.873255 
L 1222.992843 540.850083 
L 1223.205178 540.763889 
L 1223.321019 540.849168 
L 1223.494819 540.972708 
L 1223.90019 540.73834 
L 1224.093321 540.506133 
L 1224.170501 540.584903 
L 1224.305656 540.560856 
L 1224.460142 540.446554 
L 1224.556652 540.236168 
L 1224.614628 540.284603 
L 1224.923488 540.42137 
L 1225.174484 540.170221 
L 1225.348285 539.959557 
L 1225.367489 539.980496 
L 1225.695791 540.212646 
L 1225.888811 540.095625 
L 1226.139807 539.827504 
L 1226.487313 540.217662 
L 1226.525958 540.156 
L 1226.815599 539.664902 
L 1226.854134 539.709362 
L 1227.182436 540.095744 
L 1227.356125 539.96536 
L 1227.433305 539.897084 
L 1227.491281 539.934255 
L 1227.56846 539.871678 
L 1227.858117 539.462744 
L 1227.877432 539.475534 
L 1228.031918 539.669441 
L 1228.089783 539.784888 
L 1228.147758 539.684059 
L 1228.340779 539.314259 
L 1228.398754 539.360103 
L 1228.668954 539.600552 
L 1228.707599 539.53381 
L 1228.977926 539.243089 
L 1229.190261 539.418776 
L 1229.248236 539.507029 
L 1229.306101 539.453864 
L 1229.962579 538.883726 
L 1230.001097 538.923528 
L 1230.252093 539.021638 
L 1230.34873 539.078714 
L 1230.52242 539.19033 
L 1230.541734 539.165226 
L 1230.676905 538.824274 
L 1230.812061 538.645344 
L 1230.831391 538.653889 
L 1231.08226 538.991574 
L 1231.140236 538.947718 
L 1231.371902 538.636035 
L 1231.429877 538.576312 
L 1231.468412 538.635335 
L 1231.758053 539.015422 
L 1231.777383 538.973521 
L 1231.970403 538.798486 
L 1232.202069 538.552393 
L 1232.260045 538.621758 
L 1232.51104 538.793121 
L 1232.626881 538.626846 
L 1232.839216 538.460602 
L 1233.360538 538.430347 
L 1233.8432 538.164047 
L 1234.094195 538.178912 
L 1234.152045 538.132011 
L 1234.21002 538.1826 
L 1234.538196 538.311673 
L 1234.769861 538.251521 
L 1234.943677 538.128188 
L 1235.156028 537.809159 
L 1235.175343 537.830304 
L 1235.407024 538.183523 
L 1235.484204 538.092432 
L 1235.909 537.526523 
L 1235.98618 537.374525 
L 1236.063486 537.405861 
L 1236.275837 537.76869 
L 1236.410992 537.797697 
L 1236.604012 537.524424 
L 1236.758498 537.47095 
L 1237.183183 537.644617 
L 1237.472825 537.544027 
L 1237.60798 537.531881 
L 1237.820331 537.445703 
L 1238.534657 537.374247 
L 1238.727788 537.596858 
L 1238.824298 537.554234 
L 1239.113829 537.016498 
L 1239.210465 537.055044 
L 1239.268314 537.099997 
L 1239.32629 537.014351 
L 1239.557956 536.861654 
L 1239.635135 536.903356 
L 1239.808951 536.969939 
L 1240.059947 536.951266 
L 1240.330147 536.985344 
L 1240.542609 536.70518 
L 1240.581143 536.757296 
L 1240.851454 537.176874 
L 1240.909445 537.063597 
L 1241.19896 536.738376 
L 1241.392106 536.689297 
L 1241.585111 536.72437 
L 1241.874768 536.630322 
L 1242.009923 536.468188 
L 1242.299453 535.926064 
L 1242.473254 535.891874 
L 1242.685604 536.297215 
L 1242.91727 536.558627 
L 1243.110401 536.492148 
L 1243.380601 536.162277 
L 1243.438576 536.246038 
L 1243.631597 536.373894 
L 1243.805413 536.038045 
L 1244.075739 535.60229 
L 1244.326719 535.945579 
L 1244.500409 536.090757 
L 1244.63558 535.973346 
L 1244.963866 535.691457 
L 1245.137572 535.711966 
L 1245.272727 535.853845 
L 1245.272727 535.853845 
" clip-path="url(#p90661bbfdd)" style="fill: none; stroke: #1f77b4; stroke-width: 1.5; stroke-linecap: square"/>
   </g>
   <g id="line2d_16">
    <defs>
     <path id="mc71e977997" d="M -3 3 
L 3 -3 
M -3 -3 
L 3 3 
" style="stroke: #ff7f0e"/>
    </defs>
    <g clip-path="url(#p90661bbfdd)">
     <use xlink:href="#mc71e977997" x="754.130706" y="111.6" style="fill: #ff7f0e; stroke: #ff7f0e"/>
     <use xlink:href="#mc71e977997" x="1036.393996" y="496.468562" style="fill: #ff7f0e; stroke: #ff7f0e"/>
    </g>
   </g>
   <g id="LineCollection_1">
    <path d="M 230.727273 615.6 
L 1245.272727 615.6 
" clip-path="url(#p90661bbfdd)" style="fill: none; stroke-dasharray: 5.55,2.4; stroke-dashoffset: 0; stroke: #808080; stroke-width: 1.5"/>
   </g>
   <g id="LineCollection_2">
    <path d="M 751.775312 356.022855 
L 757.354913 356.022855 
" clip-path="url(#p90661bbfdd)" style="fill: none; stroke: #2ca02c; stroke-width: 1.5"/>
    <path d="M 1033.054012 556.034281 
L 1039.811286 556.034281 
" clip-path="url(#p90661bbfdd)" style="fill: none; stroke: #2ca02c; stroke-width: 1.5"/>
   </g>
   <g id="LineCollection_3">
    <path d="M 740.596717 600.445711 
L 800.563207 600.445711 
" clip-path="url(#p90661bbfdd)" style="fill: none; stroke: #d62728; stroke-width: 1.5"/>
    <path d="M 942.486477 615.6 
L 1078.810768 615.6 
" clip-path="url(#p90661bbfdd)" style="fill: none; stroke: #d62728; stroke-width: 1.5"/>
   </g>
   <g id="LineCollection_4">
    <path d="M 749.863918 576.003425 
L 771.255722 576.003425 
" clip-path="url(#p90661bbfdd)" style="fill: none; stroke: #9467bd; stroke-width: 1.5"/>
    <path d="M 943.239338 609.643428 
L 1069.775232 609.643428 
" clip-path="url(#p90661bbfdd)" style="fill: none; stroke: #9467bd; stroke-width: 1.5"/>
   </g>
   <g id="LineCollection_5">
    <path d="M 754.130706 600.445711 
L 754.130706 111.6 
" clip-path="url(#p90661bbfdd)" style="fill: none; stroke: #1f77b4; stroke-width: 1.5"/>
    <path d="M 1036.393996 615.6 
L 1036.393996 496.468562 
" clip-path="url(#p90661bbfdd)" style="fill: none; stroke: #1f77b4; stroke-width: 1.5"/>
   </g>
   <g id="patch_3">
    <path d="M 180 640.8 
L 180 86.4 
" style="fill: none; stroke: #000000; stroke-width: 0.8; stroke-linejoin: miter; stroke-linecap: square"/>
   </g>
   <g id="patch_4">
    <path d="M 1296 640.8 
L 1296 86.4 
" style="fill: none; stroke: #000000; stroke-width: 0.8; stroke-linejoin: miter; stroke-linecap: square"/>
   </g>
   <g id="patch_5">
    <path d="M 180 640.8 
L 1296 640.8 
" style="fill: none; stroke: #000000; stroke-width: 0.8; stroke-linejoin: miter; stroke-linecap: square"/>
   </g>
   <g id="patch_6">
    <path d="M 180 86.4 
L 1296 86.4 
" style="fill: none; stroke: #000000; stroke-width: 0.8; stroke-linejoin: miter; stroke-linecap: square"/>
   </g>
  </g>
 </g>
 <defs>
  <clipPath id="p90661bbfdd">
   <rect x="180" y="86.4" width="1116" height="554.4"/>
  </clipPath>
 </defs>
</svg>
